<?xml version="1.0"?>
<svg version="1.1" xmlns="http://www.w3.org/2000/svg" xmlns:xlink="http://www.w3.org/1999/xlink" width="1280" height="1280">
    <desc iVinci="yes" version="4.6" gridStep="20" showGrid="no" snapToGrid="no" codePlatform="0"/>
    <g id="Layer1" name="Layer 3" opacity="1">
        <g id="Shape1">
            <desc shapeID="1" type="0" basicInfo-basicType="0" basicInfo-roundedRectRadius="12" basicInfo-polygonSides="6" basicInfo-starPoints="5" bounding="rect(-567.95,-375.016,1135.9,750.032)" text="" font-familyName="Helvetica" font-pixelSize="20" font-bold="0" font-underline="0" font-alignment="1" strokeStyle="0" markerStart="0" markerEnd="0" shadowEnabled="0" shadowOffsetX="0" shadowOffsetY="2" shadowBlur="4" shadowOpacity="160" blurEnabled="0" blurRadius="4" transform="matrix(1,0,0,1,624.701,539.961)" pers-center="0,0" pers-size="0,0" pers-start="0,0" pers-end="0,0" locked="0" mesh="" flag=""/>
            <path id="shapePath1" d="M58.1824,382.779 L242.325,325.209 L274.58,328.475 L344.053,366.868 L935.294,164.945 L1192.65,215.043 L1175.76,552.411 L928.044,698.25 L920.439,838.699 C920.439,838.699 901.878,849.32 901.878,849.32 C901.878,849.32 831.213,797.898 831.213,797.898 L628.943,906.41 L601.339,884.518 L545.179,914.977 L535.884,902.955 L532.872,824.99 L200.824,533.95 L130.193,537.113 L122.111,527.976 L119.651,458.751 L56.7509,400.067 L58.1824,382.779 Z" style="stroke:none;fill-rule:evenodd;fill:#dfa959;fill-opacity:1;"/>
        </g>
    </g>
    <g id="Layer2" name="Layer 4" opacity="1">
        <g id="Shape2">
            <desc shapeID="2" type="0" basicInfo-basicType="0" basicInfo-roundedRectRadius="12" basicInfo-polygonSides="6" basicInfo-starPoints="5" bounding="rect(-419.796,-276.473,839.591,552.945)" text="" font-familyName="Helvetica" font-pixelSize="20" font-bold="0" font-underline="0" font-alignment="1" strokeStyle="0" markerStart="0" markerEnd="0" shadowEnabled="0" shadowOffsetX="0" shadowOffsetY="2" shadowBlur="4" shadowOpacity="160" blurEnabled="0" blurRadius="4" transform="matrix(1,0,0,1,490.093,612.517)" pers-center="0,0" pers-size="0,0" pers-start="0,0" pers-end="0,0" locked="0" mesh="" flag=""/>
            <path id="shapePath2" d="M70.297,394.286 C70.297,394.286 259.381,336.044 259.381,336.044 C259.381,336.044 909.888,735.426 909.888,735.426 C909.888,735.426 630.76,888.989 630.76,888.989 C630.76,888.989 70.297,394.286 70.297,394.286 Z" style="stroke:none;fill-rule:evenodd;fill:#ffdaa7;fill-opacity:1;"/>
        </g>
    </g>
    <g id="Layer3" name="Layer 6" opacity="1">
        <g id="Shape3">
            <desc shapeID="3" type="0" basicInfo-basicType="0" basicInfo-roundedRectRadius="12" basicInfo-polygonSides="6" basicInfo-starPoints="5" bounding="rect(-193.303,-79.8679,386.607,159.736)" text="" font-familyName="Helvetica" font-pixelSize="20" font-bold="0" font-underline="0" font-alignment="1" strokeStyle="0" markerStart="0" markerEnd="0" shadowEnabled="0" shadowOffsetX="0" shadowOffsetY="2" shadowBlur="4" shadowOpacity="160" blurEnabled="0" blurRadius="4" transform="matrix(1,0,0,1,720.053,551.263)" pers-center="0,0" pers-size="0,0" pers-start="0,0" pers-end="0,0" locked="0" mesh="" flag=""/>
            <path id="shapePath3" d="M526.75,498.634 C526.75,498.634 913.356,471.396 913.356,471.396 C913.356,471.396 740.668,631.131 740.668,631.131 C740.668,631.131 526.75,498.634 526.75,498.634 Z" style="stroke:none;fill-rule:evenodd;fill:#ffffff;fill-opacity:1;"/>
        </g>
        <g id="Shape4">
            <desc shapeID="4" type="0" basicInfo-basicType="0" basicInfo-roundedRectRadius="12" basicInfo-polygonSides="6" basicInfo-starPoints="5" bounding="rect(-36.8505,-45.1359,73.701,90.2717)" text="" font-familyName="Helvetica" font-pixelSize="20" font-bold="0" font-underline="0" font-alignment="1" strokeStyle="0" markerStart="0" markerEnd="0" shadowEnabled="0" shadowOffsetX="0" shadowOffsetY="2" shadowBlur="4" shadowOpacity="160" blurEnabled="0" blurRadius="4" transform="matrix(1,0,0,1,873.288,780.334)" pers-center="0,0" pers-size="0,0" pers-start="0,0" pers-end="0,0" locked="0" mesh="" flag=""/>
            <path id="shapePath4" d="M836.438,777.048 C836.438,777.048 910.139,735.199 910.139,735.199 C910.139,735.199 903.642,825.47 903.642,825.47 C903.642,825.47 836.438,777.048 836.438,777.048 Z" style="stroke:none;fill-rule:evenodd;fill:#b7722d;fill-opacity:1;"/>
        </g>
        <g id="Shape5">
            <desc shapeID="5" type="0" basicInfo-basicType="0" basicInfo-roundedRectRadius="12" basicInfo-polygonSides="6" basicInfo-starPoints="5" bounding="rect(-25.9376,-38.366,51.8752,76.732)" text="" font-familyName="Helvetica" font-pixelSize="20" font-bold="0" font-underline="0" font-alignment="1" strokeStyle="0" markerStart="0" markerEnd="0" shadowEnabled="0" shadowOffsetX="0" shadowOffsetY="2" shadowBlur="4" shadowOpacity="160" blurEnabled="0" blurRadius="4" transform="matrix(1,0,0,1,574.841,856.588)" pers-center="0,0" pers-size="0,0" pers-start="0,0" pers-end="0,0" locked="0" mesh="" flag=""/>
            <path id="shapePath5" d="M549.336,818.222 C549.336,818.222 600.779,862.749 600.779,862.749 C600.779,862.749 548.904,894.954 548.904,894.954 C548.904,894.954 549.336,818.222 549.336,818.222 Z" style="stroke:none;fill-rule:evenodd;fill:#e2a45d;fill-opacity:1;"/>
        </g>
        <g id="Shape6">
            <desc shapeID="6" type="0" basicInfo-basicType="0" basicInfo-roundedRectRadius="12" basicInfo-polygonSides="6" basicInfo-starPoints="5" bounding="rect(-34.8358,-32.9528,69.6717,65.9056)" text="" font-familyName="Helvetica" font-pixelSize="20" font-bold="0" font-underline="0" font-alignment="1" strokeStyle="0" markerStart="0" markerEnd="0" shadowEnabled="0" shadowOffsetX="0" shadowOffsetY="2" shadowBlur="4" shadowOpacity="160" blurEnabled="0" blurRadius="4" transform="matrix(1,0,0,1,175.33,490.003)" pers-center="0,0" pers-size="0,0" pers-start="0,0" pers-end="0,0" locked="0" mesh="" flag=""/>
            <path id="shapePath6" d="M140.913,457.05 C140.913,457.05 210.166,517.516 210.166,517.516 C210.166,517.516 140.494,522.956 140.494,522.956 C140.494,522.956 140.913,457.05 140.913,457.05 Z" style="stroke:none;fill-rule:evenodd;fill:#b7722d;fill-opacity:1;"/>
        </g>
        <g id="Shape7">
            <desc shapeID="7" type="0" basicInfo-basicType="0" basicInfo-roundedRectRadius="12" basicInfo-polygonSides="6" basicInfo-starPoints="5" bounding="rect(-298.828,-157.778,597.655,315.555)" text="" font-familyName="Helvetica" font-pixelSize="20" font-bold="0" font-underline="0" font-alignment="1" strokeStyle="0" markerStart="0" markerEnd="0" shadowEnabled="0" shadowOffsetX="0" shadowOffsetY="2" shadowBlur="4" shadowOpacity="160" blurEnabled="0" blurRadius="4" transform="matrix(1,0,0,1,635.572,341.842)" pers-center="0,0" pers-size="0,0" pers-start="0,0" pers-end="0,0" locked="0" mesh="" flag=""/>
            <path id="shapePath7" d="M336.744,385.625 C336.744,385.625 934.4,184.064 934.4,184.064 C934.4,184.064 916.786,471.568 916.786,471.568 C916.786,471.568 524.363,499.619 524.363,499.619 C524.363,499.619 336.744,385.625 336.744,385.625 Z" style="stroke:none;fill-rule:evenodd;fill:#c68c50;fill-opacity:1;"/>
        </g>
        <g id="Shape8">
            <desc shapeID="8" type="0" basicInfo-basicType="0" basicInfo-roundedRectRadius="12" basicInfo-polygonSides="6" basicInfo-starPoints="5" bounding="rect(-217.149,-238.775,434.299,477.551)" text="" font-familyName="Helvetica" font-pixelSize="20" font-bold="0" font-underline="0" font-alignment="1" strokeStyle="0" markerStart="0" markerEnd="0" shadowEnabled="0" shadowOffsetX="0" shadowOffsetY="2" shadowBlur="4" shadowOpacity="160" blurEnabled="0" blurRadius="4" transform="matrix(1,0,0,1,958.751,470.394)" pers-center="0,0" pers-size="0,0" pers-start="0,0" pers-end="0,0" locked="0" mesh="" flag=""/>
            <path id="shapePath8" d="M741.602,631.131 C741.602,631.131 869.399,709.169 869.399,709.169 C869.399,709.169 1159.72,539.48 1159.72,539.48 C1159.72,539.48 1175.9,231.618 1175.9,231.618 C1175.9,231.618 741.602,631.131 741.602,631.131 Z" style="stroke:none;fill-rule:evenodd;fill:#f3c07f;fill-opacity:1;"/>
        </g>
        <g id="Shape9">
            <desc shapeID="9" type="0" basicInfo-basicType="0" basicInfo-roundedRectRadius="12" basicInfo-polygonSides="6" basicInfo-starPoints="5" bounding="rect(-127.173,-142.217,254.346,284.435)" text="" font-familyName="Helvetica" font-pixelSize="20" font-bold="0" font-underline="0" font-alignment="1" strokeStyle="0" markerStart="0" markerEnd="0" shadowEnabled="0" shadowOffsetX="0" shadowOffsetY="2" shadowBlur="4" shadowOpacity="160" blurEnabled="0" blurRadius="4" transform="matrix(1,0,0,1,1046.48,326.281)" pers-center="0,0" pers-size="0,0" pers-start="0,0" pers-end="0,0" locked="0" mesh="" flag=""/>
            <path id="shapePath9" d="M935.009,184.064 C935.009,184.064 1173.65,229.939 1173.65,229.939 C1173.65,229.939 919.302,468.499 919.302,468.499 C919.302,468.499 935.009,184.064 935.009,184.064 Z" style="stroke:none;fill-rule:evenodd;fill:#d8a766;fill-opacity:1;"/>
        </g>
    </g>
    <g id="Layer4" name="Layer 5" opacity="1"/>
    <g id="Layer5" name="Layer 1" opacity="1">
        <g id="Shape10">
            <desc shapeID="10" type="0" basicInfo-basicType="0" basicInfo-roundedRectRadius="12" basicInfo-polygonSides="6" basicInfo-starPoints="5" bounding="rect(-343.689,-209.575,687.379,419.149)" text="" font-familyName="Helvetica" font-pixelSize="20" font-bold="0" font-underline="0" font-alignment="1" strokeStyle="0" markerStart="0" markerEnd="0" shadowEnabled="0" shadowOffsetX="0" shadowOffsetY="2" shadowBlur="4" shadowOpacity="160" blurEnabled="0" blurRadius="4" transform="matrix(1,0,0,1,587.302,538.042)" pers-center="0,0" pers-size="0,0" pers-start="0,0" pers-end="0,0" locked="0" mesh="" flag=""/>
            <path id="shapePath10" d="M243.613,328.468 L930.992,747.617 " style="stroke:#7d4a18;stroke-opacity:1;stroke-width:8;stroke-linejoin:miter;stroke-miterlimit:2;stroke-linecap:round;fill-rule:evenodd;fill:#ffffff;fill-opacity:1;"/>
        </g>
        <g id="Shape11">
            <desc shapeID="11" type="0" basicInfo-basicType="0" basicInfo-roundedRectRadius="12" basicInfo-polygonSides="6" basicInfo-starPoints="5" bounding="rect(-3.95879,-64.8657,7.91754,129.732)" text="" font-familyName="Helvetica" font-pixelSize="20" font-bold="0" font-underline="0" font-alignment="1" strokeStyle="0" markerStart="0" markerEnd="0" shadowEnabled="0" shadowOffsetX="0" shadowOffsetY="2" shadowBlur="4" shadowOpacity="160" blurEnabled="0" blurRadius="4" transform="matrix(1,0,0,1,907.087,781.571)" pers-center="0,0" pers-size="0,0" pers-start="0,0" pers-end="0,0" locked="0" mesh="" flag=""/>
            <path id="shapePath11" d="M911.045,716.705 L903.128,846.437 " style="stroke:#7d4a18;stroke-opacity:1;stroke-width:8;stroke-linejoin:miter;stroke-miterlimit:2;stroke-linecap:round;fill-rule:evenodd;fill:#ffffff;fill-opacity:1;"/>
        </g>
        <g id="Shape12">
            <desc shapeID="12" type="0" basicInfo-basicType="0" basicInfo-roundedRectRadius="12" basicInfo-polygonSides="6" basicInfo-starPoints="5" bounding="rect(-136.996,-26.6115,273.993,53.223)" text="" font-familyName="Helvetica" font-pixelSize="20" font-bold="0" font-underline="0" font-alignment="1" strokeStyle="0" markerStart="0" markerEnd="0" shadowEnabled="0" shadowOffsetX="0" shadowOffsetY="2" shadowBlur="4" shadowOpacity="160" blurEnabled="0" blurRadius="4" transform="matrix(1,0,0,1,1057.36,207.466)" pers-center="0,0" pers-size="0,0" pers-start="0,0" pers-end="0,0" locked="0" mesh="" flag=""/>
            <path id="shapePath12" d="M920.367,180.854 L1194.36,234.077 " style="stroke:#7d4a18;stroke-opacity:1;stroke-width:8;stroke-linejoin:miter;stroke-miterlimit:2;stroke-linecap:round;fill-rule:evenodd;fill:#ffffff;fill-opacity:1;"/>
        </g>
        <g id="Shape13">
            <desc shapeID="13" type="0" basicInfo-basicType="0" basicInfo-roundedRectRadius="12" basicInfo-polygonSides="6" basicInfo-starPoints="5" bounding="rect(-9.00202,-173.777,18.004,347.555)" text="" font-familyName="Helvetica" font-pixelSize="20" font-bold="0" font-underline="0" font-alignment="1" strokeStyle="0" markerStart="0" markerEnd="0" shadowEnabled="0" shadowOffsetX="0" shadowOffsetY="2" shadowBlur="4" shadowOpacity="160" blurEnabled="0" blurRadius="4" transform="matrix(1,0,0,1,1167.47,386.982)" pers-center="0,0" pers-size="0,0" pers-start="0,0" pers-end="0,0" locked="0" mesh="" flag=""/>
            <path id="shapePath13" d="M1176.47,213.205 L1158.47,560.76 " style="stroke:#7d4a18;stroke-opacity:1;stroke-width:8;stroke-linejoin:miter;stroke-miterlimit:2;stroke-linecap:round;fill-rule:evenodd;fill:#ffffff;fill-opacity:1;"/>
        </g>
        <g id="Shape14">
            <desc shapeID="14" type="0" basicInfo-basicType="0" basicInfo-roundedRectRadius="12" basicInfo-polygonSides="6" basicInfo-starPoints="5" bounding="rect(-107.313,-33.3035,214.626,66.607)" text="" font-familyName="Helvetica" font-pixelSize="20" font-bold="0" font-underline="0" font-alignment="1" strokeStyle="0" markerStart="0" markerEnd="0" shadowEnabled="0" shadowOffsetX="0" shadowOffsetY="2" shadowBlur="4" shadowOpacity="160" blurEnabled="0" blurRadius="4" transform="matrix(1,0,0,1,165.709,364.774)" pers-center="0,0" pers-size="0,0" pers-start="0,0" pers-end="0,0" locked="0" mesh="" flag=""/>
            <path id="shapePath14" d="M58.3956,398.077 L273.022,331.47 " style="stroke:#7d4a18;stroke-opacity:1;stroke-width:8;stroke-linejoin:miter;stroke-miterlimit:2;stroke-linecap:round;fill-rule:evenodd;fill:#ffffff;fill-opacity:1;"/>
        </g>
        <g id="Shape15">
            <desc shapeID="15" type="0" basicInfo-basicType="0" basicInfo-roundedRectRadius="12" basicInfo-polygonSides="6" basicInfo-starPoints="5" bounding="rect(-289.201,-255.533,578.402,511.066)" text="" font-familyName="Helvetica" font-pixelSize="20" font-bold="0" font-underline="0" font-alignment="1" strokeStyle="0" markerStart="0" markerEnd="0" shadowEnabled="0" shadowOffsetX="0" shadowOffsetY="2" shadowBlur="4" shadowOpacity="160" blurEnabled="0" blurRadius="4" transform="matrix(1,0,0,1,349.905,641.023)" pers-center="0,0" pers-size="0,0" pers-start="0,0" pers-end="0,0" locked="0" mesh="" flag=""/>
            <path id="shapePath15" d="M60.7037,385.491 L639.106,896.557 " style="stroke:#7d4a18;stroke-opacity:1;stroke-width:8;stroke-linejoin:miter;stroke-miterlimit:2;stroke-linecap:round;fill-rule:evenodd;fill:#ffffff;fill-opacity:1;"/>
        </g>
        <g id="Shape16">
            <desc shapeID="16" type="0" basicInfo-basicType="0" basicInfo-roundedRectRadius="12" basicInfo-polygonSides="6" basicInfo-starPoints="5" bounding="rect(-152.805,-82.8938,305.609,165.787)" text="" font-familyName="Helvetica" font-pixelSize="20" font-bold="0" font-underline="0" font-alignment="1" strokeStyle="0" markerStart="0" markerEnd="0" shadowEnabled="0" shadowOffsetX="0" shadowOffsetY="2" shadowBlur="4" shadowOpacity="160" blurEnabled="0" blurRadius="4" transform="matrix(1,0,0,1,770.771,811.557)" pers-center="0,0" pers-size="0,0" pers-start="0,0" pers-end="0,0" locked="0" mesh="" flag=""/>
            <path id="shapePath16" d="M923.575,728.664 L617.966,894.451 " style="stroke:#7d4a18;stroke-opacity:1;stroke-width:8;stroke-linejoin:miter;stroke-miterlimit:2;stroke-linecap:round;fill-rule:evenodd;fill:#ffffff;fill-opacity:1;"/>
        </g>
        <g id="Shape17">
            <desc shapeID="17" type="0" basicInfo-basicType="0" basicInfo-roundedRectRadius="12" basicInfo-polygonSides="6" basicInfo-starPoints="5" bounding="rect(-41.5351,-29.3344,83.07,58.6688)" text="" font-familyName="Helvetica" font-pixelSize="20" font-bold="0" font-underline="0" font-alignment="1" strokeStyle="0" markerStart="0" markerEnd="0" shadowEnabled="0" shadowOffsetX="0" shadowOffsetY="2" shadowBlur="4" shadowOpacity="160" blurEnabled="0" blurRadius="4" transform="matrix(1,0,0,1,875.425,807.114)" pers-center="0,0" pers-size="0,0" pers-start="0,0" pers-end="0,0" locked="0" mesh="" flag=""/>
            <path id="shapePath17" d="M833.89,777.78 L916.96,836.449 " style="stroke:#7d4a18;stroke-opacity:1;stroke-width:8;stroke-linejoin:miter;stroke-miterlimit:2;stroke-linecap:round;fill-rule:evenodd;fill:#ffffff;fill-opacity:1;"/>
        </g>
        <g id="Shape18">
            <desc shapeID="18" type="0" basicInfo-basicType="0" basicInfo-roundedRectRadius="12" basicInfo-polygonSides="6" basicInfo-starPoints="5" bounding="rect(-194.027,-13.7617,388.054,27.5235)" text="" font-familyName="Helvetica" font-pixelSize="20" font-bold="0" font-underline="0" font-alignment="1" strokeStyle="0" markerStart="0" markerEnd="0" shadowEnabled="0" shadowOffsetX="0" shadowOffsetY="2" shadowBlur="4" shadowOpacity="160" blurEnabled="0" blurRadius="4" transform="matrix(1,0,0,1,718.098,484.637)" pers-center="0,0" pers-size="0,0" pers-start="0,0" pers-end="0,0" locked="0" mesh="" flag=""/>
            <path id="shapePath18" d="M524.071,498.398 L912.125,470.875 " style="stroke:#7d4a18;stroke-opacity:1;stroke-width:8;stroke-linejoin:miter;stroke-miterlimit:2;stroke-linecap:round;fill-rule:evenodd;fill:#ffffff;fill-opacity:1;"/>
        </g>
        <g id="Shape19">
            <desc shapeID="19" type="0" basicInfo-basicType="0" basicInfo-roundedRectRadius="12" basicInfo-polygonSides="6" basicInfo-starPoints="5" bounding="rect(-9.3055,-149.774,18.611,299.549)" text="" font-familyName="Helvetica" font-pixelSize="20" font-bold="0" font-underline="0" font-alignment="1" strokeStyle="0" markerStart="0" markerEnd="0" shadowEnabled="0" shadowOffsetX="0" shadowOffsetY="2" shadowBlur="4" shadowOpacity="160" blurEnabled="0" blurRadius="4" transform="matrix(1,0,0,1,926.266,318.755)" pers-center="0,0" pers-size="0,0" pers-start="0,0" pers-end="0,0" locked="0" mesh="" flag=""/>
            <path id="shapePath19" d="M916.96,468.53 L935.571,168.981 " style="stroke:#7d4a18;stroke-opacity:1;stroke-width:8;stroke-linejoin:miter;stroke-miterlimit:2;stroke-linecap:round;fill-rule:evenodd;fill:#ffffff;fill-opacity:1;"/>
        </g>
        <g id="Shape20">
            <desc shapeID="20" type="0" basicInfo-basicType="0" basicInfo-roundedRectRadius="12" basicInfo-polygonSides="6" basicInfo-starPoints="5" bounding="rect(-0.240498,-42.2826,0.480988,84.565)" text="" font-familyName="Helvetica" font-pixelSize="20" font-bold="0" font-underline="0" font-alignment="1" strokeStyle="0" markerStart="0" markerEnd="0" shadowEnabled="0" shadowOffsetX="0" shadowOffsetY="2" shadowBlur="4" shadowOpacity="160" blurEnabled="0" blurRadius="4" transform="matrix(1,0,0,0.887502,140.034,494.37)" pers-center="0,0" pers-size="0,0" pers-start="0,0" pers-end="0,0" locked="0" mesh="" flag=""/>
            <path id="shapePath20" d="M139.794,456.844 L140.275,531.896 " style="stroke:#7d4a18;stroke-opacity:1;stroke-width:8;stroke-linejoin:miter;stroke-miterlimit:2;stroke-linecap:round;fill-rule:evenodd;fill:#ffffff;fill-opacity:1;"/>
        </g>
        <g id="Shape21">
            <desc shapeID="21" type="0" basicInfo-basicType="0" basicInfo-roundedRectRadius="12" basicInfo-polygonSides="6" basicInfo-starPoints="5" bounding="rect(-305.794,-103.303,611.587,206.606)" text="" font-familyName="Helvetica" font-pixelSize="20" font-bold="0" font-underline="0" font-alignment="1" strokeStyle="0" markerStart="0" markerEnd="0" shadowEnabled="0" shadowOffsetX="0" shadowOffsetY="2" shadowBlur="4" shadowOpacity="160" blurEnabled="0" blurRadius="4" transform="matrix(1,0,0,1,644.108,282.188)" pers-center="0,0" pers-size="0,0" pers-start="0,0" pers-end="0,0" locked="0" mesh="" flag=""/>
            <path id="shapePath21" d="M338.315,385.491 L949.902,178.885 " style="stroke:#7d4a18;stroke-opacity:1;stroke-width:8;stroke-linejoin:miter;stroke-miterlimit:2;stroke-linecap:round;fill-rule:evenodd;fill:#ffffff;fill-opacity:1;"/>
        </g>
        <g id="Shape22">
            <desc shapeID="22" type="0" basicInfo-basicType="0" basicInfo-roundedRectRadius="12" basicInfo-polygonSides="6" basicInfo-starPoints="5" bounding="rect(-1.52588e-05,-49.6925,0,99.385)" text="" font-familyName="Helvetica" font-pixelSize="20" font-bold="0" font-underline="0" font-alignment="1" strokeStyle="0" markerStart="0" markerEnd="0" shadowEnabled="0" shadowOffsetX="0" shadowOffsetY="2" shadowBlur="4" shadowOpacity="160" blurEnabled="0" blurRadius="4" transform="matrix(1,0,0,0.895422,548.315,863.746)" pers-center="0,0" pers-size="0,0" pers-start="0,0" pers-end="0,0" locked="0" mesh="" flag=""/>
            <path id="shapePath22" d="M548.315,819.251 L548.315,908.242 " style="stroke:#7d4a18;stroke-opacity:1;stroke-width:8;stroke-linejoin:miter;stroke-miterlimit:2;stroke-linecap:round;fill-rule:evenodd;fill:#ffffff;fill-opacity:1;"/>
        </g>
        <g id="Shape23">
            <desc shapeID="23" type="0" basicInfo-basicType="0" basicInfo-roundedRectRadius="12" basicInfo-polygonSides="6" basicInfo-starPoints="5" bounding="rect(-151.998,-88.6551,303.996,177.31)" text="" font-familyName="Helvetica" font-pixelSize="20" font-bold="0" font-underline="0" font-alignment="1" strokeStyle="0" markerStart="0" markerEnd="0" shadowEnabled="0" shadowOffsetX="0" shadowOffsetY="2" shadowBlur="4" shadowOpacity="160" blurEnabled="0" blurRadius="4" transform="matrix(1,0,0,1,1022.27,620.551)" pers-center="0,0" pers-size="0,0" pers-start="0,0" pers-end="0,0" locked="0" mesh="" flag=""/>
            <path id="shapePath23" d="M870.274,709.206 L1174.27,531.896 " style="stroke:#7d4a18;stroke-opacity:1;stroke-width:8;stroke-linejoin:miter;stroke-miterlimit:2;stroke-linecap:round;fill-rule:evenodd;fill:#ffffff;fill-opacity:1;"/>
        </g>
        <g id="Shape24">
            <desc shapeID="24" type="0" basicInfo-basicType="0" basicInfo-roundedRectRadius="12" basicInfo-polygonSides="6" basicInfo-starPoints="5" bounding="rect(-223.757,-206.387,447.515,412.772)" text="" font-familyName="Helvetica" font-pixelSize="20" font-bold="0" font-underline="0" font-alignment="1" strokeStyle="0" markerStart="0" markerEnd="0" shadowEnabled="0" shadowOffsetX="0" shadowOffsetY="2" shadowBlur="4" shadowOpacity="160" blurEnabled="0" blurRadius="4" transform="matrix(1,0,0,1,965.812,424.574)" pers-center="0,0" pers-size="0,0" pers-start="0,0" pers-end="0,0" locked="0" mesh="" flag=""/>
            <path id="shapePath24" d="M742.055,630.959 L1189.57,218.187 " style="stroke:#7d4a18;stroke-opacity:1;stroke-width:8;stroke-linejoin:miter;stroke-miterlimit:2;stroke-linecap:round;fill-rule:evenodd;fill:#ffffff;fill-opacity:1;"/>
        </g>
        <g id="Shape25">
            <desc shapeID="25" type="0" basicInfo-basicType="0" basicInfo-roundedRectRadius="12" basicInfo-polygonSides="6" basicInfo-starPoints="5" bounding="rect(-40.0392,-2.47659,80.0784,4.95319)" text="" font-familyName="Helvetica" font-pixelSize="20" font-bold="0" font-underline="0" font-alignment="1" strokeStyle="0" markerStart="0" markerEnd="0" shadowEnabled="0" shadowOffsetX="0" shadowOffsetY="2" shadowBlur="4" shadowOpacity="160" blurEnabled="0" blurRadius="4" transform="matrix(1,0,0,1,170.388,520.828)" pers-center="0,0" pers-size="0,0" pers-start="0,0" pers-end="0,0" locked="0" mesh="" flag=""/>
            <path id="shapePath25" d="M130.349,523.305 L210.427,518.352 " style="stroke:#7d4a18;stroke-opacity:1;stroke-width:8;stroke-linejoin:miter;stroke-miterlimit:2;stroke-linecap:round;fill-rule:evenodd;fill:#ffffff;fill-opacity:1;"/>
        </g>
        <g id="Shape26">
            <desc shapeID="26" type="0" basicInfo-basicType="0" basicInfo-roundedRectRadius="12" basicInfo-polygonSides="6" basicInfo-starPoints="5" bounding="rect(-33.9015,-20.1931,67.803,40.386)" text="" font-familyName="Helvetica" font-pixelSize="20" font-bold="0" font-underline="0" font-alignment="1" strokeStyle="0" markerStart="0" markerEnd="0" shadowEnabled="0" shadowOffsetX="0" shadowOffsetY="2" shadowBlur="4" shadowOpacity="160" blurEnabled="0" blurRadius="4" transform="matrix(0.932087,0,0,0.927515,570.191,882.476)" pers-center="0,0" pers-size="0,0" pers-start="0,0" pers-end="0,0" locked="0" mesh="" flag=""/>
            <path id="shapePath26" d="M538.592,901.205 L601.79,863.746 " style="stroke:#7d4a18;stroke-opacity:1;stroke-width:8;stroke-linejoin:miter;stroke-miterlimit:2;stroke-linecap:round;fill-rule:evenodd;fill:#ffffff;fill-opacity:1;"/>
        </g>
    </g>
    <g id="Layer6" name="Layer 7" opacity="1">
        <g id="Shape27">
            <desc shapeID="27" type="2" basicInfo-basicType="0" basicInfo-roundedRectRadius="12" basicInfo-polygonSides="6" basicInfo-starPoints="5" bounding="rect(-540.612,-103.647,1081.22,207.294)" text="PEPPER13" font-familyName="Courier New" font-pixelSize="187" font-bold="1" font-underline="0" font-alignment="1" strokeStyle="0" markerStart="0" markerEnd="0" shadowEnabled="0" shadowOffsetX="0" shadowOffsetY="2" shadowBlur="4" shadowOpacity="160" blurEnabled="0" blurRadius="4" transform="matrix(1,0,0,1,626.592,1068.6)" pers-center="0,0" pers-size="0,0" pers-start="0,0" pers-end="0,0" locked="0" mesh="" flag=""/>
            <path id="shapePath27" d="M223.068,1080.65 L223.068,1099.92 L241.969,1099.92 C246.474,1099.92 249.685,1100.78 251.602,1102.52 C253.52,1104.25 254.478,1106.52 254.478,1109.32 C254.478,1112.06 253.52,1114.3 251.602,1116.03 C249.685,1117.77 246.474,1118.63 241.969,1118.63 L201.428,1118.63 C196.924,1118.63 193.713,1117.77 191.795,1116.03 C189.878,1114.3 188.919,1112.03 188.919,1109.23 C188.919,1106.49 189.893,1104.25 191.841,1102.52 C193.789,1100.78 196.984,1099.92 201.428,1099.92 L204.35,1099.92 L204.35,1026.69 L201.428,1026.69 C196.924,1026.69 193.713,1025.82 191.795,1024.08 C189.878,1022.35 188.919,1020.08 188.919,1017.28 C188.919,1014.48 189.878,1012.21 191.795,1010.48 C193.713,1008.74 196.924,1007.88 201.428,1007.88 L244.526,1007.97 C257.187,1007.97 267.216,1011.42 274.612,1018.33 C282.008,1025.24 285.706,1033.66 285.706,1043.58 C285.706,1049.06 284.458,1054.23 281.962,1059.1 C280.075,1062.75 276.925,1066.36 272.512,1069.92 C268.099,1073.48 263.594,1076.16 258.998,1077.96 C254.402,1079.75 248.33,1080.65 240.782,1080.65 L223.068,1080.65 M223.068,1061.93 L240.417,1061.93 C248.574,1061.93 255.042,1060.09 259.82,1056.41 C264.598,1052.73 266.988,1048.3 266.988,1043.12 C266.988,1038.74 265.055,1034.9 261.19,1031.62 C257.324,1028.33 251.8,1026.69 244.617,1026.69 L223.068,1026.69 L223.068,1061.93 M326.871,1072.43 L326.871,1099.92 L374.625,1099.92 L374.625,1089.78 C374.625,1085.28 375.493,1082.07 377.228,1080.15 C378.963,1078.23 381.23,1077.27 384.03,1077.27 C386.769,1077.27 389.007,1078.23 390.741,1080.15 C392.476,1082.07 393.344,1085.28 393.344,1089.78 L393.344,1118.63 L305.231,1118.63 C300.726,1118.63 297.515,1117.77 295.598,1116.03 C293.68,1114.3 292.722,1112.03 292.722,1109.23 C292.722,1106.49 293.696,1104.25 295.643,1102.52 C297.591,1100.78 300.787,1099.92 305.231,1099.92 L308.153,1099.92 L308.153,1026.69 L305.231,1026.69 C300.726,1026.69 297.515,1025.82 295.598,1024.08 C293.68,1022.35 292.722,1020.08 292.722,1017.28 C292.722,1014.48 293.68,1012.21 295.598,1010.48 C297.515,1008.74 300.726,1007.88 305.231,1007.88 L389.235,1007.97 L389.235,1036.46 C389.235,1040.9 388.383,1044.08 386.678,1046 C384.974,1047.92 382.721,1048.88 379.921,1048.88 C377.121,1048.88 374.854,1047.93 373.119,1046.04 C371.384,1044.16 370.517,1040.96 370.517,1036.46 L370.517,1026.69 L326.871,1026.69 L326.871,1053.71 L343.307,1053.71 C343.307,1048.84 343.763,1045.71 344.676,1044.31 C346.563,1041.33 349.242,1039.84 352.711,1039.84 C355.451,1039.84 357.688,1040.79 359.423,1042.71 C361.157,1044.63 362.025,1047.84 362.025,1052.34 L362.025,1073.89 C362.025,1077.97 361.538,1080.71 360.564,1082.11 C358.616,1084.97 355.998,1086.4 352.711,1086.4 C349.242,1086.4 346.563,1084.91 344.676,1081.93 C343.763,1080.53 343.307,1077.36 343.307,1072.43 L326.871,1072.43 M447.475,1080.65 L447.475,1099.92 L466.375,1099.92 C470.88,1099.92 474.091,1100.78 476.008,1102.52 C477.926,1104.25 478.885,1106.52 478.885,1109.32 C478.885,1112.06 477.926,1114.3 476.008,1116.03 C474.091,1117.77 470.88,1118.63 466.375,1118.63 L425.834,1118.63 C421.33,1118.63 418.119,1117.77 416.201,1116.03 C414.284,1114.3 413.325,1112.03 413.325,1109.23 C413.325,1106.49 414.299,1104.25 416.247,1102.52 C418.195,1100.78 421.391,1099.92 425.834,1099.92 L428.756,1099.92 L428.756,1026.69 L425.834,1026.69 C421.33,1026.69 418.119,1025.82 416.201,1024.08 C414.284,1022.35 413.325,1020.08 413.325,1017.28 C413.325,1014.48 414.284,1012.21 416.201,1010.48 C418.119,1008.74 421.33,1007.88 425.834,1007.88 L468.932,1007.97 C481.594,1007.97 491.622,1011.42 499.018,1018.33 C506.414,1025.24 510.112,1033.66 510.112,1043.58 C510.112,1049.06 508.864,1054.23 506.369,1059.1 C504.482,1062.75 501.331,1066.36 496.918,1069.92 C492.505,1073.48 488,1076.16 483.404,1077.96 C478.809,1079.75 472.737,1080.65 465.188,1080.65 L447.475,1080.65 M447.475,1061.93 L464.823,1061.93 C472.98,1061.93 479.448,1060.09 484.226,1056.41 C489.005,1052.73 491.394,1048.3 491.394,1043.12 C491.394,1038.74 489.461,1034.9 485.596,1031.62 C481.73,1028.33 476.206,1026.69 469.023,1026.69 L447.475,1026.69 L447.475,1061.93 M559.678,1080.65 L559.678,1099.92 L578.579,1099.92 C583.083,1099.92 586.294,1100.78 588.212,1102.52 C590.129,1104.25 591.088,1106.52 591.088,1109.32 C591.088,1112.06 590.129,1114.3 588.212,1116.03 C586.294,1117.77 583.083,1118.63 578.579,1118.63 L538.038,1118.63 C533.533,1118.63 530.322,1117.77 528.404,1116.03 C526.487,1114.3 525.528,1112.03 525.528,1109.23 C525.528,1106.49 526.502,1104.25 528.45,1102.52 C530.398,1100.78 533.594,1099.92 538.038,1099.92 L540.959,1099.92 L540.959,1026.69 L538.038,1026.69 C533.533,1026.69 530.322,1025.82 528.404,1024.08 C526.487,1022.35 525.528,1020.08 525.528,1017.28 C525.528,1014.48 526.487,1012.21 528.404,1010.48 C530.322,1008.74 533.533,1007.88 538.038,1007.88 L581.135,1007.97 C593.797,1007.97 603.825,1011.42 611.221,1018.33 C618.617,1025.24 622.315,1033.66 622.315,1043.58 C622.315,1049.06 621.068,1054.23 618.572,1059.1 C616.685,1062.75 613.535,1066.36 609.121,1069.92 C604.708,1073.48 600.203,1076.16 595.608,1077.96 C591.012,1079.75 584.94,1080.65 577.392,1080.65 L559.678,1080.65 M559.678,1061.93 L577.026,1061.93 C585.183,1061.93 591.651,1060.09 596.429,1056.41 C601.208,1052.73 603.597,1048.3 603.597,1043.12 C603.597,1038.74 601.664,1034.9 597.799,1031.62 C593.934,1028.33 588.409,1026.69 581.227,1026.69 L559.678,1026.69 L559.678,1061.93 M663.48,1072.43 L663.48,1099.92 L711.235,1099.92 L711.235,1089.78 C711.235,1085.28 712.102,1082.07 713.837,1080.15 C715.572,1078.23 717.839,1077.27 720.64,1077.27 C723.379,1077.27 725.616,1078.23 727.351,1080.15 C729.086,1082.07 729.953,1085.28 729.953,1089.78 L729.953,1118.63 L641.84,1118.63 C637.336,1118.63 634.125,1117.77 632.207,1116.03 C630.29,1114.3 629.331,1112.03 629.331,1109.23 C629.331,1106.49 630.305,1104.25 632.253,1102.52 C634.201,1100.78 637.397,1099.92 641.84,1099.92 L644.762,1099.92 L644.762,1026.69 L641.84,1026.69 C637.336,1026.69 634.125,1025.82 632.207,1024.08 C630.29,1022.35 629.331,1020.08 629.331,1017.28 C629.331,1014.48 630.29,1012.21 632.207,1010.48 C634.125,1008.74 637.336,1007.88 641.84,1007.88 L725.844,1007.97 L725.844,1036.46 C725.844,1040.9 724.992,1044.08 723.288,1046 C721.583,1047.92 719.331,1048.88 716.531,1048.88 C713.731,1048.88 711.463,1047.93 709.728,1046.04 C707.993,1044.16 707.126,1040.96 707.126,1036.46 L707.126,1026.69 L663.48,1026.69 L663.48,1053.71 L679.916,1053.71 C679.916,1048.84 680.372,1045.71 681.286,1044.31 C683.173,1041.33 685.851,1039.84 689.321,1039.84 C692.06,1039.84 694.297,1040.79 696.032,1042.71 C697.767,1044.63 698.634,1047.84 698.634,1052.34 L698.634,1073.89 C698.634,1077.97 698.147,1080.71 697.173,1082.11 C695.225,1084.97 692.608,1086.4 689.321,1086.4 C685.851,1086.4 683.173,1084.91 681.286,1081.93 C680.372,1080.53 679.916,1077.36 679.916,1072.43 L663.48,1072.43 M775.592,1076.36 L775.592,1099.92 L782.349,1099.92 C786.854,1099.92 790.065,1100.78 791.982,1102.52 C793.9,1104.25 794.858,1106.52 794.858,1109.32 C794.858,1112.06 793.9,1114.3 791.982,1116.03 C790.065,1117.77 786.854,1118.63 782.349,1118.63 L753.952,1118.63 C749.448,1118.63 746.237,1117.77 744.319,1116.03 C742.402,1114.3 741.443,1112.03 741.443,1109.23 C741.443,1106.49 742.417,1104.25 744.365,1102.52 C746.313,1100.78 749.508,1099.92 753.952,1099.92 L756.874,1099.92 L756.874,1026.69 L753.952,1026.69 C749.448,1026.69 746.237,1025.82 744.319,1024.08 C742.402,1022.35 741.443,1020.08 741.443,1017.28 C741.443,1014.48 742.402,1012.21 744.319,1010.48 C746.237,1008.74 749.448,1007.88 753.952,1007.88 L796.319,1007.97 C809.529,1007.97 819.77,1011.24 827.045,1017.78 C834.319,1024.33 837.956,1032.29 837.956,1041.66 C837.956,1047.51 836.252,1052.82 832.843,1057.6 C829.434,1062.37 824.29,1066.62 817.412,1070.33 C821.368,1073.8 825.599,1078.25 830.103,1083.66 C832.904,1087.13 836.678,1092.55 841.426,1099.92 C846.174,1099.92 849.309,1100.4 850.831,1101.38 C853.57,1103.26 854.939,1105.91 854.939,1109.32 C854.939,1112.06 853.996,1114.3 852.109,1116.03 C850.222,1117.77 847.026,1118.63 842.521,1118.63 L831.838,1118.63 C816.681,1095.2 804.111,1081.11 794.128,1076.36 L775.592,1076.36 M775.592,1057.64 L790.202,1057.64 C795.619,1057.64 800.459,1056.82 804.72,1055.18 C810.442,1052.98 814.292,1050.67 816.27,1048.24 C818.249,1045.8 819.238,1043.4 819.238,1041.02 C819.238,1037.49 817.351,1034.22 813.577,1031.21 C809.802,1028.19 804.294,1026.69 797.05,1026.69 L775.592,1026.69 L775.592,1057.64 M916.649,997.468 L916.649,1099.92 L935.55,1099.92 C940.054,1099.92 943.265,1100.78 945.183,1102.52 C947.1,1104.25 948.059,1106.52 948.059,1109.32 C948.059,1112.06 947.1,1114.3 945.183,1116.03 C943.265,1117.77 940.054,1118.63 935.55,1118.63 L879.03,1118.63 C874.525,1118.63 871.314,1117.77 869.397,1116.03 C867.479,1114.3 866.52,1112.03 866.52,1109.23 C866.52,1106.49 867.479,1104.25 869.397,1102.52 C871.314,1100.78 874.525,1099.92 879.03,1099.92 L897.931,1099.92 L897.931,1021.85 L881.221,1026.23 C878.543,1026.96 876.534,1027.33 875.195,1027.33 C872.821,1027.33 870.766,1026.38 869.031,1024.5 C867.297,1022.61 866.429,1020.3 866.429,1017.56 C866.429,1015.06 867.068,1013.1 868.347,1011.67 C869.625,1010.24 872.303,1008.97 876.382,1007.88 L916.649,997.468 M1046.02,1056.09 C1051.56,1059.86 1055.7,1064.23 1058.44,1069.19 C1061.18,1074.15 1062.54,1079.71 1062.54,1085.86 C1062.54,1092.49 1060.73,1098.62 1057.11,1104.25 C1053.49,1109.88 1048.24,1114.15 1041.36,1117.04 C1034.48,1119.93 1025.47,1121.37 1014.33,1121.37 C999.846,1121.37 988.95,1119.12 981.645,1114.62 C977.567,1112.06 975.528,1109.02 975.528,1105.49 C975.528,1102.81 976.426,1100.54 978.221,1098.68 C980.017,1096.83 982.193,1095.9 984.75,1095.9 C986.515,1095.9 988.341,1096.51 990.228,1097.73 C992.907,1099.55 995.433,1100.77 997.807,1101.38 C1001.46,1102.23 1006.48,1102.66 1012.87,1102.66 C1023.77,1102.66 1031.65,1101.24 1036.52,1098.41 C1041.39,1095.58 1043.83,1091.58 1043.83,1086.4 C1043.83,1082.57 1042.41,1078.87 1039.58,1075.31 C1036.75,1071.75 1032.96,1068.99 1028.21,1067.05 C1025.47,1065.95 1020.85,1065.19 1014.33,1064.76 C1011.23,1064.58 1008.84,1063.62 1007.17,1061.89 C1005.49,1060.15 1004.66,1058.01 1004.66,1055.45 C1004.66,1052.77 1005.57,1050.52 1007.39,1048.69 C1009.22,1046.87 1011.53,1045.95 1014.33,1045.95 C1020.54,1045.95 1023.86,1045.92 1024.29,1045.86 C1026.72,1045.62 1029.16,1044.83 1031.59,1043.49 C1034.03,1042.15 1035.99,1040.31 1037.48,1037.96 C1038.97,1035.62 1039.72,1033.2 1039.72,1030.7 C1039.72,1026.75 1037.97,1023.32 1034.47,1020.43 C1030.97,1017.54 1025.72,1016.1 1018.72,1016.1 C1009.71,1016.1 1002.83,1018.71 998.081,1023.95 C996.681,1025.47 995.555,1026.44 994.703,1026.87 C993.424,1027.54 991.994,1027.87 990.411,1027.87 C987.854,1027.87 985.663,1026.96 983.837,1025.13 C982.011,1023.31 981.098,1021.06 981.098,1018.38 C981.098,1014.18 983.898,1010.1 989.498,1006.14 C997.655,1000.36 1007.85,997.468 1020.09,997.468 C1031.65,997.468 1040.94,1000.76 1047.94,1007.33 C1054.94,1013.9 1058.44,1021.82 1058.44,1031.07 C1058.44,1035.88 1057.4,1040.37 1055.33,1044.54 C1053.26,1048.71 1050.16,1052.56 1046.02,1056.09 Z" style="stroke:none;fill-rule:nonzero;fill:#b7722e;fill-opacity:1;"/>
        </g>
    </g>
</svg>
